<?xml version="1.0" encoding="UTF-8" standalone="no"?>
<!DOCTYPE svg PUBLIC "-//W3C//DTD SVG 1.1//EN" "http://www.w3.org/Graphics/SVG/1.1/DTD/svg11.dtd">
<svg width="100%" height="100%" viewBox="0 0 446 146" version="1.1" xmlns="http://www.w3.org/2000/svg" xmlns:xlink="http://www.w3.org/1999/xlink" xml:space="preserve" xmlns:serif="http://www.serif.com/" style="fill-rule:evenodd;clip-rule:evenodd;stroke-linejoin:round;stroke-miterlimit:1.41421;">
    <g>
        <g>
            <path d="M6.801,34.134L6.801,31.78C6.801,26.985 7.258,22.669 8.174,18.833C9.089,14.996 10.55,11.662 12.555,8.828C14.561,5.994 17.242,3.815 20.598,2.289C23.955,0.763 27.988,0 32.696,0C39.932,0 45.665,1.242 49.894,3.727C54.122,6.212 56.237,9.504 56.237,13.601C56.237,16.304 55.43,18.484 53.817,20.141C52.204,21.797 50.134,22.625 47.605,22.625C45.338,22.625 43.355,21.863 41.654,20.337C39.954,18.811 39.104,16.74 39.104,14.125C39.104,12.381 39.562,10.833 40.477,9.482C41.393,8.13 42.592,7.237 44.074,6.801C43.376,6.103 42.396,5.536 41.131,5.101C39.867,4.665 38.625,4.447 37.404,4.447C35.835,4.447 34.331,4.948 32.892,5.951C31.453,6.953 30.342,9.089 29.557,12.359C28.772,15.629 28.38,22.015 28.38,31.519L28.38,32.303L49.698,30.472L48.521,38.319L28.38,38.319L28.38,82.132C28.38,89.804 30.952,94.949 36.096,97.564L36.096,99.526L0.392,99.526L0.392,97.564C4.665,94.861 6.801,89.717 6.801,82.132L6.801,38.319L0,38.319L0,34.788L6.801,34.134Z" style="fill:#2e3871;fill-rule:nonzero;"/>
            <path d="M123.59,66.83C123.59,71.626 122.675,76.138 120.844,80.366C119.013,84.595 116.441,88.235 113.127,91.287C109.814,94.338 105.869,96.692 101.292,98.349C96.714,100.006 91.81,100.834 86.578,100.834C81.434,100.834 76.704,100.027 72.389,98.414C68.073,96.801 64.345,94.491 61.207,91.483C58.068,88.475 55.67,84.922 54.013,80.824C52.357,76.726 51.529,72.28 51.529,67.484C51.529,62.689 52.335,58.111 53.948,53.752C55.561,49.392 57.959,45.556 61.141,42.243C64.324,38.93 68.269,36.336 72.977,34.461C77.685,32.587 82.917,31.65 88.671,31.65C94.077,31.65 98.959,32.543 103.319,34.331C107.678,36.118 111.362,38.625 114.37,41.851C117.378,45.077 119.667,48.826 121.236,53.098C122.805,57.37 123.59,61.948 123.59,66.83ZM74.546,61.991C74.546,72.541 75.68,80.868 77.947,86.971C80.214,93.074 83.57,96.126 88.017,96.126C92.202,96.126 95.341,93.793 97.433,89.129C99.526,84.464 100.572,77.816 100.572,69.184C100.572,59.07 99.439,51.049 97.172,45.12C94.905,39.191 91.592,36.227 87.232,36.227C84.355,36.227 82.001,37.382 80.17,39.693C78.339,42.003 76.944,45.142 75.985,49.109C75.026,53.076 74.546,57.37 74.546,61.991Z" style="fill:#2e3871;fill-rule:nonzero;"/>
            <path d="M206.114,66.83C206.114,71.626 205.199,76.138 203.368,80.366C201.537,84.595 198.965,88.235 195.652,91.287C192.339,94.338 188.393,96.692 183.816,98.349C179.238,100.006 174.334,100.834 169.103,100.834C163.959,100.834 159.229,100.027 154.913,98.414C150.597,96.801 146.87,94.491 143.731,91.483C140.592,88.475 138.194,84.922 136.538,80.824C134.881,76.726 134.053,72.28 134.053,67.484C134.053,62.689 134.859,58.111 136.472,53.752C138.085,49.392 140.483,45.556 143.665,42.243C146.848,38.93 150.793,36.336 155.501,34.461C160.209,32.587 165.441,31.65 171.195,31.65C176.601,31.65 181.484,32.543 185.843,34.331C190.202,36.118 193.886,38.625 196.894,41.851C199.902,45.077 202.191,48.826 203.76,53.098C205.33,57.37 206.114,61.948 206.114,66.83ZM157.071,61.991C157.071,72.541 158.204,80.868 160.471,86.971C162.738,93.074 166.095,96.126 170.541,96.126C174.726,96.126 177.865,93.793 179.958,89.129C182.05,84.464 183.096,77.816 183.096,69.184C183.096,59.07 181.963,51.049 179.696,45.12C177.429,39.191 174.116,36.227 169.757,36.227C166.879,36.227 164.525,37.382 162.694,39.693C160.863,42.003 159.468,45.142 158.509,49.109C157.55,53.076 157.071,57.37 157.071,61.991Z" style="fill:#2e3871;fill-rule:nonzero;"/>
            <path d="M242.734,100.965C235.323,100.965 229.328,99.788 224.751,97.433C220.174,95.079 217.885,92.071 217.885,88.409C217.885,85.794 218.67,83.679 220.239,82.066C221.808,80.453 223.857,79.647 226.386,79.647C228.74,79.647 230.723,80.453 232.336,82.066C233.949,83.679 234.756,85.576 234.756,87.756C234.756,88.802 234.56,89.826 234.167,90.829C233.775,91.832 233.274,92.595 232.663,93.118C233.535,93.99 235.039,94.709 237.175,95.276C239.311,95.842 241.382,96.126 243.388,96.126C247.049,96.126 249.84,95.363 251.758,93.837C253.676,92.311 254.635,90.328 254.635,87.886C254.635,86.666 254.264,85.445 253.523,84.224C252.782,83.004 251.431,81.848 249.469,80.759C247.507,79.669 243.932,78.121 238.745,76.116C233.557,74.11 229.721,72.192 227.236,70.361C224.751,68.53 222.92,66.743 221.743,64.999C220.566,63.255 219.694,61.403 219.127,59.441C218.561,57.479 218.277,55.321 218.277,52.967C218.277,49.044 219.476,45.382 221.874,41.981C224.271,38.581 227.715,36.031 232.206,34.331C236.696,32.63 241.339,31.78 246.134,31.78C253.196,31.78 258.733,32.827 262.743,34.919C266.754,37.012 268.759,39.845 268.759,43.42C268.759,46.036 267.975,48.15 266.405,49.763C264.836,51.376 262.787,52.183 260.259,52.183C257.904,52.183 255.921,51.376 254.308,49.763C252.695,48.15 251.888,46.254 251.888,44.074C251.888,43.028 252.085,42.003 252.477,41.001C252.869,39.998 253.371,39.235 253.981,38.712C253.283,38.014 252.085,37.426 250.384,36.946C248.684,36.467 246.962,36.227 245.219,36.227C242.603,36.227 240.423,36.903 238.679,38.254C236.936,39.606 236.064,41.284 236.064,43.289C236.064,45.556 236.892,47.627 238.549,49.501C240.205,51.376 243.671,53.36 248.946,55.452C254.221,57.545 258.122,59.31 260.651,60.749C263.179,62.187 265.25,63.866 266.863,65.784C268.476,67.702 269.61,69.729 270.264,71.865C270.917,74.001 271.244,76.203 271.244,78.47C271.244,84.922 268.563,90.284 263.201,94.556C257.839,98.829 251.017,100.965 242.734,100.965Z" style="fill:#2e3871;fill-rule:nonzero;"/>
        </g>
        <g>
            <path d="M269.904,145.798L246.494,95.316C245.71,93.572 244.576,91.61 243.094,89.431C241.612,87.251 239.911,85.245 237.993,83.414C236.075,81.584 234.419,80.406 233.024,79.883L233.024,77.922L271.605,77.922L271.605,79.883C270.297,80.755 269.294,81.91 268.597,83.349C267.899,84.788 267.616,86.662 267.747,88.973C267.877,91.283 268.597,93.921 269.904,96.885L279.975,119.903L285.598,100.809C286.993,96.188 287.386,92.046 286.775,88.384C286.165,84.722 284.639,81.889 282.198,79.883L282.198,77.922L307.701,77.922L307.701,79.883C304.649,81.366 301.619,83.829 298.611,87.273C295.603,90.717 293.271,94.531 291.614,98.716L272.782,145.798L269.904,145.798Z" style="fill:#ffc175;fill-rule:nonzero;"/>
            <path d="M346.02,127.488L346.02,111.402C343.753,111.402 341.486,111.838 339.22,112.71C336.953,113.582 335.165,115.151 333.857,117.418C332.55,119.685 331.896,122.388 331.896,125.527C331.896,128.404 332.615,130.802 334.054,132.72C335.492,134.638 337.476,135.597 340.004,135.597C342.533,135.597 344.669,134.638 346.413,132.72C346.151,131.15 346.02,129.407 346.02,127.488ZM374.531,137.036L376.754,137.036L376.754,139.39C374.487,141.395 372.221,142.877 369.954,143.836C367.687,144.795 364.722,145.275 361.06,145.275C358.27,145.275 355.676,144.577 353.279,143.182C350.881,141.787 349.028,139.651 347.72,136.774C345.541,139.303 342.772,141.351 339.416,142.921C336.059,144.49 332.332,145.275 328.234,145.275C322.654,145.275 318.272,143.618 315.09,140.305C311.908,136.992 310.316,132.894 310.316,128.012C310.316,123.652 311.515,119.903 313.913,116.764C316.311,113.625 319.711,111.162 324.114,109.375C328.517,107.588 333.596,106.694 339.35,106.694C341.879,106.694 344.102,106.825 346.02,107.086L346.02,100.547C346.02,96.362 345.977,93.071 345.889,90.673C345.802,88.275 345.454,86.379 344.843,84.984C344.233,83.589 343.405,82.499 342.358,81.714C341.312,80.93 339.699,80.537 337.519,80.537C335.863,80.537 334.228,80.908 332.615,81.649C331.002,82.39 329.803,83.327 329.018,84.461C329.978,85.333 330.762,86.466 331.373,87.861C331.983,89.256 332.288,90.608 332.288,91.915C332.288,94.705 331.394,97.081 329.607,99.043C327.82,101.005 325.487,101.986 322.61,101.986C319.907,101.986 317.619,101.048 315.744,99.174C313.869,97.299 312.932,95.011 312.932,92.308C312.932,90.564 313.368,88.755 314.24,86.88C315.112,85.006 316.747,83.197 319.144,81.453C321.542,79.709 324.528,78.445 328.103,77.66C331.678,76.875 335.034,76.483 338.173,76.483C344.276,76.483 349.53,77.202 353.933,78.641C358.336,80.08 361.714,82.608 364.068,86.226C366.422,89.845 367.599,95.665 367.599,103.686L367.599,130.496C367.599,134.856 369.91,137.036 374.531,137.036Z" style="fill:#ffc175;fill-rule:nonzero;"/>
            <path d="M413.766,91C416.469,86.553 419.629,83.022 423.248,80.406C426.866,77.791 430.419,76.483 433.907,76.483C435.65,76.483 437.46,76.897 439.334,77.725C441.209,78.554 442.734,79.949 443.912,81.91C445.089,83.872 445.677,85.899 445.677,87.992C445.677,91.392 444.587,94.226 442.407,96.493C440.228,98.76 437.481,99.893 434.168,99.893C431.291,99.893 428.85,98.825 426.844,96.689C424.839,94.553 423.749,92.046 423.575,89.169C422.441,89.256 420.937,89.801 419.063,90.804C417.188,91.806 415.423,93.136 413.766,94.793L413.766,126.965C413.766,131.15 414.529,134.442 416.055,136.839C417.58,139.237 419.826,141.09 422.79,142.398L422.79,144.359L385.778,144.359L385.778,142.398C390.051,139.695 392.187,134.551 392.187,126.965L392.187,96.1C392.187,93.485 391.598,91.218 390.421,89.3C389.244,87.382 387.914,86.074 386.432,85.376L386.432,83.414L413.766,75.175L413.766,91Z" style="fill:#ffc175;fill-rule:nonzero;"/>
        </g>
    </g>
</svg>
