<svg viewBox="0 0 461 260" xmlns="http://www.w3.org/2000/svg" fill-rule="evenodd" clip-rule="evenodd" stroke-linejoin="round" stroke-miterlimit="1.41"><path d="M460.8 259.2V0H0v259.2h460.8z" fill="#ffc175"/><path d="M244.57 0L215 132.68l29.86-3.36-36.06 129.67h252V0" fill="#2f3871"/><g fill-rule="nonzero"><path d="M210.75 131.67c-.1-.59-.13-1.2-.1-1.82.05-.63.07-1.24.07-1.82 0-.57-.04-1.17-.1-1.8a69.1 69.1 0 01-.2-1.85c-.05-.58-.07-1.12-.06-1.61.01-.5.08-.88.2-1.15.17-.32.38-.56.63-.74.25-.18.5-.38.72-.61.28.04.52.12.74.23a1.95 1.95 0 01.91 1c.08.18.1.37.05.56.52.31.95.74 1.27 1.27.33.53.58 1.12.76 1.76.18.64.3 1.31.37 2.03.08.7.14 1.41.2 2.1.04.7.1 1.35.15 1.96.05.62.15 1.16.3 1.62.92-1.34 1.7-2.53 2.34-3.56a78.73 78.73 0 011.93-2.99c.65-.95 1.38-1.92 2.18-2.9.81-.99 1.84-2.1 3.1-3.33.27.04.48.1.63.15l.44.2c.14.05.3.1.47.13.16.03.4.03.69-.01a25.5 25.5 0 00.37.88 16.17 16.17 0 01.44 1.16c.07.08.1.2.08.33 0 .14-.02.26-.04.36a.71.71 0 00-.02.25c.01.06.08.06.2 0-.08.36-.22.68-.4.96-.2.28-.28.62-.26 1.02-.56.75-1.19 1.53-1.88 2.33s-1.38 1.62-2.07 2.5a47.3 47.3 0 00-2 2.7c-.64.93-1.18 1.92-1.62 2.96-.12 0-.22.03-.28.1-.06.06-.12.13-.17.22l-.16.25c-.05.08-.14.12-.27.12-.04.67-.28 1.3-.73 1.9-.45.6-.9 1.1-1.37 1.53.04.17.06.3.06.4 0 .11 0 .22-.03.32l-.05.33a2 2 0 00.02.42c-.19.5-.43.93-.74 1.26-.3.34-.63.59-.99.75a2.13 2.13 0 01-2.17-.18c-.14-.09-.27-.2-.37-.35a6.22 6.22 0 00-.68-.8.9.9 0 00-.42-.24c.04-.2.05-.43.01-.66a3.51 3.51 0 00-.14-.62 1.95 1.95 0 00-.22-.48c-.08-.12-.16-.18-.25-.18-.08-.53-.2-1.1-.33-1.72l-.4-1.83c-.14-.61-.25-1.2-.34-1.8a8.92 8.92 0 01-.09-1.63c.02-.25-.03-.47-.14-.67a2 2 0 01-.24-.7z" fill="#323b6b"/><path d="M226.35 117.1c.84.07 1.86.48 1.86.48s1.11-.03 1.89.5c.93.65 1.33 1.94 1.75 3.05l-.2-.27s.53.82.6 1.7c0 0 .2.84.1 1.43a5.6 5.6 0 01-.61 1.66l-.05.29c-.17.85-.33.98-.66 1.41-2.38 3.15-5.44 5.82-7.1 9.73 0 0-.37.77-.92 1.18l-.04.13a8.69 8.69 0 01-1.8 2.86v.25c-.01 1.4-.85 2.67-1.84 3.62a5.33 5.33 0 01-6.42.77 5.88 5.88 0 01-1.43-1.36s-1.54-1.09-1.5-2.63c0-.2-.08-.16-.26-.5-.1-.18-.18-.38-.24-.59-.23-.83-.54-2.59-.86-4.08a16.83 16.83 0 01-.41-3.4s-.3-.88-.39-1.54c-.31-2.27-.05-4.46-.28-6.92-.15-1.55-.28-3.16.4-4.54.43-.85 1.25-1.47 1.92-2.13 0 0 .48-.44.93-.62 2.01-.84 4.65.73 5.5 2.86 0 0 .83.87 1.34 1.82.4.74.69 1.53.9 2.34 1.57-2.3 3.4-4.44 5.39-6.42a3.16 3.16 0 012.43-1.08zm-13.53 28.73s-.05-.03 0 0zm-.02-.01zm-.7-1.04c.15.05-.05-.01 0 0zm14-24.65c-3.63 3.59-6.23 7.99-9.44 12.67-.87-2.78-.05-6.02-1.5-8.95a4.25 4.25 0 00-1.55-1.8c.18-.82-.7-1.6-1.64-1.77 0 0-.73.52-1.02.8-.1.11-.2.22-.27.34-.27.42-.22.47-.25.65-.37 1.9.28 3.93.3 5.85 0 1.46-.47 2.99.2 4.36.4.78.19 1.76.34 2.74.27 1.68.75 3.32 1.02 5 .24.01.32.28.4.47.2.45.29.97.2 1.45 0 0 .64.54 1.17 1.16.1.13.3.26.3.26.22.14.23.14.33.18 1.36.66 3-.52 3.57-2v-.1c-.05-.46.12-.91 0-1.38.39-.35.74-.74 1.07-1.15.54-.66.98-1.43 1.04-2.28.37 0 .4-.68.86-.69 0 0 1-2.06 1.87-3.31 1.73-2.47 3.81-4.66 5.66-7.1 0 0 .09-.7.4-1.26.15-.25.25-.52.32-.8-.14.07-.1.18-.14-.7 0-.1-.08-.24-.08-.24-.25-.66-.51-1.31-.78-1.95 0 0 .01-.1-.15-.08-.72.08-1.38-.37-2.12-.48l-.12.11zm-13.94 22.81h0zm-.12 0s-.17-.03 0 0zm-2.01-1.52c-.02.1 0-.02 0 0zm-1.58-7.61zm23.7-10.03s0-.03 0 0z" fill="#ffc175"/><path d="M228.75 129.31l.13-.77c.02-.2-.05-.4-.22-.64l.2-.78c.05-.2.06-.45.02-.79.19-.54.47-1 .86-1.38.39-.38.81-.7 1.27-.96.46-.26.95-.48 1.45-.66.5-.18.97-.33 1.41-.46 0-.08-.04-.12-.12-.12-.09 0-.1-.05-.07-.16 1.13-.2 2.27-.51 3.41-.9 1.14-.4 2.31-.76 3.5-1.08 1.2-.31 2.42-.5 3.68-.58a11.8 11.8 0 013.96.49c.08.25.2.5.34.72l.46.68c.16.22.3.43.42.64.13.21.2.43.22.66.25.23.46.48.62.74.15.26.18.61.07 1.05a21.5 21.5 0 01-1.5.97 9.26 9.26 0 00-2.83-.25c-.94.07-1.8.14-2.55.22-.23-.25-.5-.37-.81-.36a4.3 4.3 0 00-1 .16l-1.01.28c-.34.1-.65.12-.95.08-.23.21-.53.35-.9.42-.38.08-.78.14-1.2.18-.02.1 0 .18.06.22.06.04.08.12.03.25.15.19.35.32.6.4l.77.2c.26.06.5.15.7.26.22.12.35.3.42.55.37.02.7.12.97.3a2.7 2.7 0 011.1 1.45c.08.28.11.53.1.76.08.21.17.3.26.26.1-.05.2 0 .33.15.08.32.28.65.58 1 .3.34.54.71.7 1.1l.12 1.7c.03.5-.06 1-.27 1.48a7.83 7.83 0 01-1.54 2.48c-.67.74-1.43 1.38-2.28 1.94a17.9 17.9 0 01-2.68 1.44c-.94.4-1.88.75-2.8 1.02a.71.71 0 00-.3 0c-.11.02-.14-.04-.07-.19-.2.17-.4.27-.65.32-.24.04-.5.05-.78.04a22 22 0 01-.85-.04 3.66 3.66 0 00-.83.03 6.48 6.48 0 01-.46-.5 2.04 2.04 0 01-.33-.6c-.1-.02-.15-.1-.14-.2.01-.12-.04-.18-.14-.18 0-.08 0-.14.03-.19l.06-.12c.09-.07.12-.11.11-.14 0-.04-.04-.07-.1-.1l-.15-.1a.13.13 0 01-.05-.16c.1-.2.15-.42.11-.68l-.07-.8c-.03-.27 0-.53.06-.77s.24-.45.53-.61c.86.08 1.67.04 2.44-.13.76-.17 1.48-.4 2.16-.7.68-.28 1.33-.6 1.95-.95l1.8-.96c.07-.2.17-.38.3-.53.14-.15.28-.29.43-.42.15-.14.28-.29.4-.44.13-.16.23-.36.3-.59v-.18a.3.3 0 00-.1-.11 1.24 1.24 0 01-.13-.11c-.04-.05-.06-.1-.06-.2a3.25 3.25 0 01-.17-.06.39.39 0 00-.15-.03 11.4 11.4 0 00-1.72-.69c-.61-.19-1.12-.4-1.54-.63-.25.17-.5.21-.76.13a10.6 10.6 0 00-.9-.25c-.89-.04-1.72-.13-2.5-.25a9.64 9.64 0 01-2.28-.66 1.4 1.4 0 00-.16-.33c-.06-.1-.2-.12-.44-.08a6.6 6.6 0 00-.45-.58c-.16-.18-.3-.38-.43-.61z" fill="#323b6b"/><path d="M244.94 117.1c1.33.01 2.65.22 3.94.57a3.04 3.04 0 012.11 1.92c.25.68.96 1.29 1.3 2.17 1.23 1.53 1.64 3.96.03 5.41-.59.54-1.3.95-2.02 1.35 0 0-1.12.49-1.97.33-1.13-.2-2.3-.2-3.54-.1 0 0 .16.42.26.74l.1.1s.43.83.67 1.1a7.2 7.2 0 011.1 1.78s.13.33.19.63l.04.33.1 1.71s-.03 1.65-.5 2.82c-1.77 4.4-6.59 7.11-10.94 8.45 0 0-.68.2-1.15.17l-.18.05-.57.1c-.72.07-1.47-.12-2.18-.02 0 0-1.72.03-2.75-1.08a6.14 6.14 0 01-.87-1.16l-.37-.6c-.22-.38-.37-.8-.41-1.22-.04-.32 0-.19-.06-.45-.06-.3-.02-1.16.03-1.38-.17-1.73.26-3.65 2-4.66 0 0 1.3-.4 2.02-.37a7.6 7.6 0 003.54-.9s.48.04-.27-.16c0 0-1.17-.08-2.12-.2-1.48-.22-3.08-.5-4.18-1.43l-1.42-1.38c-.67-.82-1.15-1.77-1-2.82.03-.24-.04-.26-.08-.46a2.91 2.91 0 01-.04-.78c.05-.62.22-1.13.22-1.13-.03-.72.03-.77.11-1.03.72-2.4 3.13-4.12 5.5-4.95l.24-.2c.8-.62 1.02-.56 1.7-.7 3.58-.74 6.94-2.38 10.8-2.54l.62-.01zm-14.91 28.16c.3.02-.02 0 0 0zm-.1 0s-.01 0 0 0zm7.16-.65c.02-.04.1-.22 0 0zm7.71-24.6c-3.86.04-7.58 1.92-11.12 2.58-.02.06-.12.14.09.16.08.01.1.13.1.13-1.91.55-4.04 1.17-4.9 3.2-.2.5-.13 1.1-.31 1.82.27.39.19.94.1 1.42.27.5.38.55.59.81.14.18.2.34.5.36.19.01.3.23.38.43l.62.24c1.3.45 2.69.6 4.07.66 0 0 .86.28 1.2.3.24.01.44-.22.67-.1.31.16.64.3.98.42.7.24 1.4.46 2.06.78 0 0 .42.1.42.18.02.23.4.25.24.69-.13.4-.45.7-.76 1-.28.27-.2.03-.5.58-.05.09-.08.18-.11.27-2.64 1.32-5.25 3.02-8.36 2.74-1.42.82-.16 1.99-.63 2.85-.06.2.55.24.2.5-.2.4-.05.36.05.6.03.07.1.02.16.18.16.38.43.7.73.99a72.12 72.12 0 002.26.03c.32-.03.63-.13.88-.35-.06.14-.05.1.37.2 3.63-1.09 7.34-2.71 9.06-6.34.52-1.09.49-2.36.4-3.72-.33-.78-1.07-1.32-1.29-2.1-.2-.24-.44-.03-.6-.42.1-1.24-1-2.44-2.16-2.5-.03-.11-.04-.12-.06-.16-.36-.85-1.86-.55-2.43-1.26.06-.18-.09-.47-.09-.47.76-.08 1.57-.12 2.1-.6 1.01.14 1.99-.58 3.06-.52.27.02.52.16.71.36 1.82-.2 3.64-.39 5.38.03.52-.28 1.02-.62 1.5-.97.17-.74 0-.96-.18-1.22-.2-.28-.5-.57-.5-.57-.1-1.03-1.11-1.71-1.44-2.68l-.01-.02c-1.12-.32-2.27-.5-3.43-.5zm-17.24 20.14c-.06.13.02-.03 0 0zm.99-.43c-.15.12.01-.01 0 0zm10.08-3.76zm-4.04-1.23s.43.02 0 0zm-4.52-1.34c.13-.01.03 0 0 0zm-2.6-1.52zm18.29-1.14c-.02-.05 0-.02 0 0zm-11.9-10.9c-.01 0 0 0 0 0z" fill="#ffc175"/></g><g fill-rule="nonzero"><g fill="#2e3871"><path d="M185.6 47.58v-.46c0-.94.09-1.78.27-2.53.18-.75.46-1.4.85-1.95.4-.56.92-.98 1.57-1.28.66-.3 1.44-.45 2.36-.45 1.42 0 2.53.25 3.36.73.82.49 1.24 1.13 1.24 1.93 0 .53-.16.95-.48 1.27-.3.33-.71.49-1.2.49-.45 0-.84-.15-1.17-.45-.33-.3-.5-.7-.5-1.2 0-.35.1-.65.27-.92.18-.26.41-.43.7-.52a1.49 1.49 0 00-.57-.33 2.22 2.22 0 00-.73-.13c-.3 0-.6.1-.88.3-.28.2-.5.6-.65 1.25-.15.63-.23 1.88-.23 3.74v.15l4.16-.36-.23 1.53h-3.93v8.55c0 1.5.5 2.5 1.5 3.01v.39h-6.96v-.39c.83-.52 1.25-1.53 1.25-3v-8.56h-1.33v-.69l1.33-.12zM208.4 53.96a6.58 6.58 0 01-2.05 4.77 6.77 6.77 0 01-2.31 1.38 8.38 8.38 0 01-5.64.01 5.93 5.93 0 01-3.59-3.43 7.65 7.65 0 01-.01-5.28 6.42 6.42 0 013.71-3.77 8.21 8.21 0 013.07-.55c1.05 0 2 .18 2.86.52a6.03 6.03 0 013.5 3.67c.3.83.45 1.72.45 2.68zm-9.58-.95c0 2.06.22 3.69.66 4.88.45 1.19 1.1 1.78 1.97 1.78.82 0 1.43-.45 1.84-1.36.4-.91.61-2.2.61-3.9 0-1.97-.22-3.53-.66-4.69-.45-1.16-1.1-1.74-1.94-1.74-.56 0-1.02.23-1.38.68a4.74 4.74 0 00-.82 1.84 10.7 10.7 0 00-.28 2.51zM224.5 53.96a6.56 6.56 0 01-2.05 4.77 6.76 6.76 0 01-2.3 1.38 8.39 8.39 0 01-5.65.01 5.94 5.94 0 01-3.59-3.43 7.65 7.65 0 01-.01-5.28 6.4 6.4 0 013.72-3.77 8.21 8.21 0 013.06-.55c1.06 0 2.01.18 2.86.52a6.03 6.03 0 013.5 3.67c.3.83.46 1.72.46 2.68zm-9.57-.95c0 2.06.22 3.69.66 4.88.44 1.19 1.1 1.78 1.96 1.78.82 0 1.43-.45 1.84-1.36.41-.91.61-2.2.61-3.9 0-1.97-.22-3.53-.66-4.69-.44-1.16-1.09-1.74-1.94-1.74-.56 0-1.02.23-1.38.68a4.72 4.72 0 00-.81 1.84 10.7 10.7 0 00-.29 2.51zM231.64 60.62a7.7 7.7 0 01-3.5-.7c-.9-.45-1.35-1.04-1.35-1.75 0-.51.16-.93.46-1.24.3-.32.7-.47 1.2-.47.46 0 .85.15 1.16.47.32.32.48.69.48 1.11 0 .2-.04.4-.12.6-.08.2-.17.34-.3.45.18.17.47.3.89.42.42.1.82.16 1.21.16.71 0 1.26-.15 1.63-.44a1.42 1.42 0 00.35-1.88c-.15-.24-.41-.46-.8-.68-.38-.2-1.07-.51-2.09-.9-1-.4-1.76-.77-2.24-1.12a3.8 3.8 0 01-1.58-2.13c-.12-.39-.17-.8-.17-1.27 0-.76.23-1.48.7-2.14a4.2 4.2 0 012.02-1.5c.87-.33 1.78-.5 2.72-.5 1.37 0 2.45.21 3.24.62.78.4 1.17.96 1.17 1.66 0 .5-.15.92-.46 1.24-.3.31-.7.47-1.2.47-.46 0-.84-.16-1.16-.47a1.52 1.52 0 01-.47-1.11c0-.2.04-.4.11-.6.08-.2.18-.35.3-.45a1.62 1.62 0 00-.7-.35c-.34-.09-.67-.14-1.01-.14-.51 0-.94.14-1.28.4-.34.26-.5.6-.5.98 0 .44.15.85.48 1.21.32.37 1 .76 2.03 1.17 1.02.4 1.79.75 2.28 1.03.5.28.9.6 1.21.98.32.38.54.77.67 1.19.12.42.19.85.19 1.29 0 1.26-.53 2.3-1.57 3.14a6.22 6.22 0 01-4 1.25z"/></g><g fill="#ffc175"><path d="M236.94 69.37l-4.56-9.85a7.75 7.75 0 00-1.66-2.33c-.38-.35-.7-.58-.97-.69v-.38h7.53v.38c-.26.17-.45.4-.59.68-.14.28-.2.65-.17 1.1.03.45.17.96.42 1.54l1.97 4.5 1.1-3.73c.27-.9.35-1.71.23-2.43a2.61 2.61 0 00-.9-1.66v-.38h4.98v.38c-.6.3-1.19.77-1.77 1.45a7.66 7.66 0 00-1.37 2.23l-3.67 9.19h-.56zM251.8 65.8v-3.15c-.44 0-.89.09-1.33.26-.44.17-.79.48-1.04.92-.26.44-.39.97-.39 1.58 0 .56.14 1.03.42 1.4.28.38.67.57 1.16.57.5 0 .91-.2 1.26-.57-.06-.3-.08-.64-.08-1.02zm5.56 1.86h.44v.46c-.45.39-.89.68-1.33.86-.44.2-1.02.28-1.74.28-.54 0-1.05-.13-1.51-.4a2.67 2.67 0 01-1.09-1.25 5.1 5.1 0 01-3.8 1.66 3.39 3.39 0 01-2.57-.98 3.33 3.33 0 01-.93-2.4c0-.84.24-1.58.7-2.19a4.63 4.63 0 012-1.44 7.87 7.87 0 012.97-.52c.5 0 .93.02 1.3.07v-1.27c0-.82-.01-1.46-.03-1.93a3.12 3.12 0 00-.2-1.11 1.55 1.55 0 00-.49-.64c-.2-.15-.51-.23-.94-.23-.32 0-.64.07-.96.22-.31.14-.55.33-.7.55.19.17.34.39.46.66s.18.54.18.8c0 .54-.17 1-.52 1.38-.35.39-.8.58-1.37.58-.53 0-.97-.19-1.34-.55a1.82 1.82 0 01-.55-1.34c0-.34.09-.7.26-1.06.17-.37.49-.72.95-1.06a4.63 4.63 0 011.75-.74 9.94 9.94 0 015.04.2c.86.27 1.52.77 1.98 1.47.46.7.69 1.84.69 3.4v5.24c0 .85.45 1.28 1.35 1.28zM265.02 58.67a6.97 6.97 0 011.85-2.06c.7-.51 1.4-.77 2.08-.77.34 0 .7.08 1.06.24a2.27 2.27 0 011.24 2 2.3 2.3 0 01-.64 1.67c-.43.44-.96.66-1.6.66-.57 0-1.05-.2-1.44-.63-.39-.41-.6-.9-.64-1.46-.22.01-.51.12-.88.32-.36.2-.7.45-1.03.77v6.28c0 .82.15 1.46.45 1.93.3.47.73.83 1.31 1.08v.39h-7.22v-.39c.83-.52 1.25-1.53 1.25-3v-6.03c0-.51-.12-.95-.35-1.33a1.9 1.9 0 00-.77-.76v-.39l5.33-1.6v3.08z"/></g></g></svg>